<svg xmlns="http://www.w3.org/2000/svg" width="670.04" height="114.18" viewBox="0 0 670.04 114.18"><path d="M643.92,82.61a16.25,16.25,0,0,0,8.56-2.31A16.71,16.71,0,0,0,658.54,74a18.43,18.43,0,0,0,2.22-9,18.68,18.68,0,0,0-2.22-9.09,16.54,16.54,0,0,0-6.06-6.38,16.47,16.47,0,0,0-23.13,6.38,18.88,18.88,0,0,0-2.18,9.09,18.62,18.62,0,0,0,2.18,9,16.22,16.22,0,0,0,14.57,8.65m0-44a26.18,26.18,0,0,1,13.29,3.45,24.91,24.91,0,0,1,9.42,9.47A26.67,26.67,0,0,1,670,64.92a28.3,28.3,0,0,1-3.17,13.39,24,24,0,0,1-8.71,9.41,23.11,23.11,0,0,1-12.35,3.41,23.25,23.25,0,0,1-18.26-8.61v25.55a4.57,4.57,0,0,1-4.83,4.83,4.77,4.77,0,0,1-3.45-1.33,4.62,4.62,0,0,1-1.37-3.5V64.92a26.39,26.39,0,0,1,3.45-13.39,25.42,25.42,0,0,1,9.37-9.47A25.7,25.7,0,0,1,643.92,38.61Z"/><path d="M572,82.61a16.58,16.58,0,0,0,8.65-2.27,15.66,15.66,0,0,0,6-6.29,19.21,19.21,0,0,0,2.12-9.13,19.47,19.47,0,0,0-2.12-9.18,15.61,15.61,0,0,0-6-6.34,17.63,17.63,0,0,0-17.31,0,15.9,15.9,0,0,0-6,6.34,19.15,19.15,0,0,0-2.18,9.18,18.9,18.9,0,0,0,2.18,9.13,16,16,0,0,0,6,6.29A16.59,16.59,0,0,0,572,82.61m0,8.52a27.11,27.11,0,0,1-13.54-3.36,23.8,23.8,0,0,1-9.27-9.32,27.34,27.34,0,0,1-3.31-13.53,27.59,27.59,0,0,1,3.31-13.63A23.8,23.8,0,0,1,558.41,42,27.11,27.11,0,0,1,572,38.61,26.65,26.65,0,0,1,585.34,42a24.2,24.2,0,0,1,9.27,9.32A27.3,27.3,0,0,1,598,64.92a27.45,27.45,0,0,1-3.31,13.53,23.9,23.9,0,0,1-9.23,9.32A26.81,26.81,0,0,1,572,91.13Z"/><path d="M502,38.52a24,24,0,0,1,11.73,2.84,20,20,0,0,1,8.14,8.28,27.29,27.29,0,0,1,2.93,13.1V86a4.83,4.83,0,1,1-9.65,0V62.74q0-7.66-4.12-11.59t-10.93-3.93a16.2,16.2,0,0,0-7.24,1.61,12.85,12.85,0,0,0-5.11,4.35,10.77,10.77,0,0,0-1.84,6.15V86a4.73,4.73,0,0,1-1.33,3.45A4.85,4.85,0,0,1,476.29,86V21.67a4.62,4.62,0,0,1,1.37-3.5,5.23,5.23,0,0,1,6.95,0,4.7,4.7,0,0,1,1.33,3.5V44.86a21.08,21.08,0,0,1,7.19-4.69,23.94,23.94,0,0,1,8.9-1.65"/><path d="M434.63,91.13a36.28,36.28,0,0,1-12.11-2,23.24,23.24,0,0,1-8.9-5.2A4,4,0,0,1,412.39,81a4.43,4.43,0,0,1,1.9-3.7A5.75,5.75,0,0,1,417.6,76a5.1,5.1,0,0,1,3.6,1.7,14.47,14.47,0,0,0,5.39,3.46,20.24,20.24,0,0,0,7.66,1.46q5.4,0,8.38-1.79a5.44,5.44,0,0,0,3-4.83,5.7,5.7,0,0,0-2.93-4.87q-2.94-2-9.94-3.27-18.17-3.5-18.17-14.95a11.67,11.67,0,0,1,2.75-7.85,16.54,16.54,0,0,1,7.19-4.83A27.64,27.64,0,0,1,434,38.61a28.83,28.83,0,0,1,11,2,18.81,18.81,0,0,1,7.72,5.49,4.81,4.81,0,0,1,1.23,3,3.81,3.81,0,0,1-1.61,2.94,4.44,4.44,0,0,1-2.65.75A6.47,6.47,0,0,1,445.23,51a14.22,14.22,0,0,0-5-3.08,20.21,20.21,0,0,0-6.44-.9,15.26,15.26,0,0,0-7.14,1.47,4.52,4.52,0,0,0-2.79,4.12,5.2,5.2,0,0,0,.94,3.17,8.36,8.36,0,0,0,3.6,2.36,44.79,44.79,0,0,0,7.66,2.13q10.32,2.09,14.62,5.77A12,12,0,0,1,455,75.61a13.9,13.9,0,0,1-2.37,7.9,15.7,15.7,0,0,1-6.95,5.59,27.22,27.22,0,0,1-11,2"/><path d="M302.78,38.52a24,24,0,0,1,11.73,2.84,19.94,19.94,0,0,1,8.14,8.28,27.17,27.17,0,0,1,2.93,13.1V86a4.83,4.83,0,1,1-9.65,0V62.74q0-7.66-4.11-11.59t-10.93-3.93a16.17,16.17,0,0,0-7.24,1.61,12.78,12.78,0,0,0-5.11,4.35,10.78,10.78,0,0,0-1.85,6.15V86a4.76,4.76,0,0,1-1.32,3.45,4.64,4.64,0,0,1-3.5,1.38A4.7,4.7,0,0,1,277,86V21.67a4.65,4.65,0,0,1,1.37-3.5,4.8,4.8,0,0,1,3.46-1.32,4.54,4.54,0,0,1,4.82,4.82V44.86a21.18,21.18,0,0,1,7.19-4.69,23.94,23.94,0,0,1,8.9-1.65"/><path d="M252,81.29a3.73,3.73,0,0,1,2.89,1.32A4.93,4.93,0,0,1,256.11,86a4.28,4.28,0,0,1-1.56,3.41,6,6,0,0,1-4,1.32h-1.71a15.58,15.58,0,0,1-8.47-2.41,16.91,16.91,0,0,1-6-6.58,19.91,19.91,0,0,1-2.17-9.37V49h-4.35a4.54,4.54,0,0,1-3.22-1.14,3.68,3.68,0,0,1-1.23-2.83,3.9,3.9,0,0,1,1.23-3,4.54,4.54,0,0,1,3.22-1.14h4.35V27.25a4.73,4.73,0,1,1,9.46,0V40.88h8.05A4.53,4.53,0,0,1,252.89,42a3.9,3.9,0,0,1,1.23,3,3.68,3.68,0,0,1-1.23,2.83A4.53,4.53,0,0,1,249.68,49h-8.05V72.39a9.73,9.73,0,0,0,2.08,6.34,6.35,6.35,0,0,0,5.11,2.56Z"/><path d="M395.51,57a27.19,27.19,0,0,0-3.74-8.48A21.93,21.93,0,0,0,384.43,42,26.65,26.65,0,0,0,371,38.61,27.11,27.11,0,0,0,357.5,42a23.8,23.8,0,0,0-9.27,9.32,27.59,27.59,0,0,0-3.31,13.63c0,.81,0,1.6.08,2.38a27.88,27.88,0,0,0,1.54,7.42,25.06,25.06,0,0,0,1.69,3.73,23.74,23.74,0,0,0,9.27,9.32A27.11,27.11,0,0,0,371,91.13a26.81,26.81,0,0,0,13.48-3.36,23.79,23.79,0,0,0,7.38-6.46c.2-.27.4-.54.59-.82s.19-.3.3-.45.29-.45.43-.69a3.66,3.66,0,0,0,.37-1,3.84,3.84,0,0,0-.11-1.87,4,4,0,0,0-1-1.69,5.18,5.18,0,0,0-1.71-1.12,4,4,0,0,0-1.54-.35,5.34,5.34,0,0,0-1.66.26,5,5,0,0,0-2.75,2l-.18.22a15.38,15.38,0,0,1-4.92,4.57,17.57,17.57,0,0,1-17.31,0,16,16,0,0,1-6-6.29,16.23,16.23,0,0,1-.84-1.79l30.92-8.44,1.29-.36,4.67-1.27.13,0a4.27,4.27,0,0,0,2.57-1.92,4,4,0,0,0,.4-3.2m-41.32,7.75a19.14,19.14,0,0,1,2.18-9,15.9,15.9,0,0,1,6-6.34,17.63,17.63,0,0,1,17.31,0,15.61,15.61,0,0,1,6,6.34l.19.39Z" fill-rule="evenodd"/><path d="M57.06,33.72a16.83,16.83,0,1,0,0-33.65A57.08,57.08,0,0,0,1.38,44.6,16.83,16.83,0,0,1,34.6,48.4,17,17,0,0,1,34.22,52,23.43,23.43,0,0,1,57.06,33.72" fill="#f47a20" fill-rule="evenodd"/><path d="M40.51,73.67a23.28,23.28,0,0,1-6.85-16.54,23.59,23.59,0,0,1,.53-5h0l0-.12h0a16.83,16.83,0,0,0-32.84-7.4v0c0,.1,0,.19-.07.29a57.12,57.12,0,0,0,30.78,63.55A16.83,16.83,0,0,1,46.77,78.15a23.4,23.4,0,0,1-6.26-4.48" fill="#f3703f" fill-rule="evenodd"/><path d="M70.28,75a18.16,18.16,0,0,1-13.22,5.57,23.37,23.37,0,0,1-10-2.25l-.26-.13a16.83,16.83,0,0,0-14.67,30.3l.43.2h0a56.84,56.84,0,0,0,24.52,5.52,50.83,50.83,0,0,0,37-15.42,61.05,61.05,0,0,0,6.43-7.6A16.83,16.83,0,0,1,73.09,71.67,28.25,28.25,0,0,1,70.28,75" fill="#e76363" fill-rule="evenodd"/><path d="M137.59,80.46a16.83,16.83,0,1,0,0,33.66,57.13,57.13,0,0,0,55.68-44.53A16.83,16.83,0,0,1,160,65.79a17,17,0,0,1,.38-3.6,23.38,23.38,0,0,1-22.83,18.27" fill="#5d3996" fill-rule="evenodd"/><path d="M154.14,40.51A23.33,23.33,0,0,1,161,57.06a23.66,23.66,0,0,1-.54,5h0l0,.11h0a17,17,0,0,0-.38,3.59,16.83,16.83,0,0,0,33.22,3.81h0c0-.1.05-.2.07-.3A57.14,57.14,0,0,0,162.56,5.74,16.83,16.83,0,0,1,147.87,36a23.3,23.3,0,0,1,6.27,4.48" fill="#834294" fill-rule="evenodd"/><path d="M137.59,33.66a23.35,23.35,0,0,1,10,2.24l.26.13A16.83,16.83,0,0,0,162.56,5.74l-.45-.21A56.7,56.7,0,0,0,137.59,0a50.79,50.79,0,0,0-37,15.4,61.31,61.31,0,0,0-6.33,7.45,16.83,16.83,0,0,1,27.19,19.8,27.62,27.62,0,0,1,2.94-3.46,18.14,18.14,0,0,1,13.19-5.53" fill="#a9488b" fill-rule="evenodd"/><path d="M73.09,71.67A16.83,16.83,0,0,0,100.5,91.16c.3-.41.6-.84.89-1.27a86,86,0,0,0,12.33-29A52.14,52.14,0,0,1,121,43.34l.48-.69a16.83,16.83,0,0,0-27.19-19.8c-.39.55-.78,1.1-1.16,1.66A86.64,86.64,0,0,0,81,53.25,52.49,52.49,0,0,1,73.8,70.67c-.23.34-.47.67-.71,1" fill="#d45185" fill-rule="evenodd"/></svg>