<svg width="46" height="49" viewBox="0 0 46 49" fill="none" xmlns="http://www.w3.org/2000/svg">
    <path d="M38.9646 34.9323C40.1797 34.3264 40.9696 33.054 40.9696 31.6603V19.239C40.9696 17.8454 40.1797 16.6336 38.9646 15.9671L25.1722 9.05964C23.7747 8.39313 22.1949 8.39313 20.7975 9.05964L7.00506 15.9671C5.78987 16.573 5 17.8454 5 19.239V31.7209C5 33.1145 5.78987 34.3264 7.00506 34.9929L20.7975 41.8398C22.1949 42.5063 23.7747 42.5063 25.1722 41.8398L38.9646 34.9323Z" fill="#FEFEFE" />
    <path d="M40.97 19.239C40.97 17.8454 40.1801 16.6336 38.9649 15.9671L25.1725 9.05964C23.775 8.39313 22.1953 8.39313 20.7978 9.05964L7.49149 15.7247C6.64086 16.2095 6.64086 17.4213 7.49149 17.906L22.3168 25.3588C22.7421 25.5406 22.9852 25.9647 22.9852 26.4495V42.3851C23.7143 42.3851 24.5042 42.2033 25.1725 41.8398L38.9649 34.9323C40.1801 34.3264 40.97 33.054 40.97 31.6603V19.239Z" fill="url(#paint0_linear_695_3762)" />
    <path d="M40.9702 9.60497C40.9702 7.06012 38.9044 5 36.3525 5H35.7449C35.4411 5 35.2588 5.24237 35.2588 5.48473V12.8769C35.2588 13.5434 34.712 14.0888 34.0436 14.0888H27.7854C26.8132 14.0888 26.0234 14.6341 25.598 15.4824C25.4158 15.9065 24.9905 16.1489 24.5044 16.1489H17.2132C16.5449 16.1489 15.998 16.6942 15.998 17.3607V21.4204C15.998 21.9051 16.2411 22.3292 16.7272 22.511L29.9727 29.1761C31.1879 29.782 31.9778 31.0544 31.9778 32.448V36.2047C31.9778 37.5983 31.1879 38.8102 29.9727 39.4767L38.9651 34.9323C40.1803 34.3264 40.9702 33.054 40.9702 31.6604V9.60497Z" fill="url(#paint1_linear_695_3762)" />
    <path d="M26.3873 39.9008L25.962 39.4161C25.5975 38.992 25.1114 38.6284 24.6253 38.3255L17.7595 34.8717C16.7266 34.3264 16.0582 33.2358 16.0582 32.0845V30.9333C16.0582 29.1155 15.0253 27.4189 13.3848 26.6313L6.70127 23.2987C5.66835 22.7534 5 21.7233 5 20.5721V31.721C5 33.1146 5.78987 34.3264 7.00506 34.9929L23.1063 43.0516C23.7747 43.4152 24.6253 43.4152 25.2937 43.0516L25.7797 42.8092C26.3873 42.5063 26.8127 41.9004 26.8127 41.1733C26.8127 40.6885 26.6911 40.2644 26.3873 39.9008Z" fill="url(#paint2_linear_695_3762)" />
    <path d="M7.00506 15.9671L9.43544 14.7553V8.39314C9.43544 7.66604 9.92152 6.99953 10.5899 6.69657C10.8329 6.63598 10.9544 6.39361 10.9544 6.15124V5.60592C10.9544 5.24237 10.7114 5 10.3468 5H9.43544C8.28101 5 7.2481 5.42414 6.45823 6.27243L6.21519 6.51479C5.48608 7.30249 5 8.33254 5 9.48379V19.2391C5 17.8454 5.78987 16.573 7.00506 15.9671Z" fill="url(#paint3_linear_695_3762)" />
    <defs>
        <linearGradient id="paint0_linear_695_3762" x1="-17.9436" y1="-10.1706" x2="35.3137" y2="29.6305" gradientUnits="userSpaceOnUse">
            <stop stop-color="white" />
            <stop offset="0.540273" stop-color="#ECECEC" />
            <stop offset="1" stop-color="#DBDBDB" />
        </linearGradient>
        <linearGradient id="paint1_linear_695_3762" x1="27.0105" y1="14.6808" x2="38.5436" y2="35.1284" gradientUnits="userSpaceOnUse">
            <stop stop-color="#FF14B1" />
            <stop offset="1" stop-color="#009DFF" />
        </linearGradient>
        <linearGradient id="paint2_linear_695_3762" x1="13.6513" y1="26.9607" x2="24.7013" y2="41.7622" gradientUnits="userSpaceOnUse">
            <stop stop-color="#FF14B1" />
            <stop offset="1" stop-color="#009DFF" />
        </linearGradient>
        <linearGradient id="paint3_linear_695_3762" x1="7.86009" y1="8.99823" x2="10.7207" y2="17.783" gradientUnits="userSpaceOnUse">
            <stop stop-color="#FF14B1" />
            <stop offset="1" stop-color="#009DFF" />
        </linearGradient>
    </defs>
</svg>