<svg width="130" height="48" viewBox="0 0 130 48" fill="none" xmlns="http://www.w3.org/2000/svg">
<path d="M48.2711 17.5936H52.5177C56.8094 17.5936 59.1586 20.4608 59.1586 24.0448C59.1586 27.584 56.8094 30.496 52.5177 30.496H48.2259V17.5936H48.2711ZM52.3821 27.9872C54.8217 27.9872 56.177 26.2848 56.177 24.0896C56.177 21.8944 54.8668 20.192 52.3821 20.192H51.1172V28.032H52.3821V27.9872Z" fill="white"/>
<path d="M60.7849 24.0448C60.7849 20.3712 63.7666 17.4144 67.4711 17.4144C71.1755 17.4144 74.1572 20.3712 74.1572 24.0448C74.1572 27.7184 71.1755 30.6752 67.4711 30.6752C63.7666 30.6752 60.7849 27.7184 60.7849 24.0448ZM71.3111 24.0448C71.3111 21.8944 69.6395 20.2368 67.4711 20.2368C65.3026 20.2368 63.6311 21.8944 63.6311 24.0448C63.6311 26.1952 65.3026 27.8528 67.4711 27.8528C69.6395 27.8528 71.3111 26.24 71.3111 24.0448Z" fill="white"/>
<path d="M83.1021 30.496L80.3464 26.1952L77.5906 30.496H74.2927L78.7652 23.8656L74.5186 17.5936H77.8165L80.3012 21.4912L82.8311 17.5936H86.1289L81.8824 23.8656L86.4 30.496H83.1021Z" fill="white"/>
<path d="M97.9652 26.9568C97.9652 29.2416 96.2485 30.496 94.1252 30.496H88.1167V17.5936H93.4475C95.616 17.5936 97.3779 18.8928 97.3779 21.1776C97.3779 22.5216 96.7906 23.3728 95.8871 23.9104C97.1068 24.4032 97.9652 25.344 97.9652 26.9568ZM93.0861 20.1472H90.9628V22.88H93.0861C93.8541 22.88 94.4866 22.2528 94.4866 21.4912C94.4866 20.7296 93.8541 20.1472 93.0861 20.1472ZM95.0739 26.5984C95.0739 25.8368 94.4414 25.2096 93.6734 25.2096H90.9628V27.9424H93.6734C94.4866 27.9872 95.0739 27.36 95.0739 26.5984Z" fill="white"/>
<path d="M99.185 24.0448C99.185 20.3712 102.167 17.4144 105.871 17.4144C109.576 17.4144 112.557 20.3712 112.557 24.0448C112.557 27.7184 109.576 30.6752 105.871 30.6752C102.167 30.6752 99.185 27.7184 99.185 24.0448ZM109.711 24.0448C109.711 21.8944 108.04 20.2368 105.871 20.2368C103.703 20.2368 102.031 21.8944 102.031 24.0448C102.031 26.1952 103.703 27.8528 105.871 27.8528C108.04 27.8528 109.711 26.24 109.711 24.0448Z" fill="white"/>
<path d="M121.502 30.496L118.746 26.1952L115.991 30.496H112.693L117.165 23.8656L112.919 17.5936H116.216L118.701 21.4912L121.231 17.5936H124.529L120.282 23.8656L124.8 30.496H121.502Z" fill="white"/>
<path d="M38.7646 34.7475C39.9797 34.1415 40.7696 32.8691 40.7696 31.4755V19.0542C40.7696 17.6606 39.9797 16.4488 38.7646 15.7822L24.9722 8.87479C23.5747 8.20828 21.9949 8.20828 20.5975 8.87479L6.80507 15.7822C5.58988 16.3882 4.8 17.6606 4.8 19.0542V31.5361C4.8 32.9297 5.58988 34.1415 6.80507 34.808L20.5975 41.6549C21.9949 42.3214 23.5747 42.3214 24.9722 41.6549L38.7646 34.7475Z" fill="#FEFEFE"/>
<path d="M40.7696 19.0542C40.7696 17.6606 39.9798 16.4488 38.7646 15.7822L24.9722 8.87479C23.5747 8.20828 21.9949 8.20828 20.5975 8.87479L7.29114 15.5399C6.44051 16.0246 6.44051 17.2364 7.29114 17.7212L22.1165 25.174C22.5418 25.3557 22.7848 25.7799 22.7848 26.2646V42.2002C23.5139 42.2002 24.3038 42.0185 24.9722 41.6549L38.7646 34.7475C39.9798 34.1415 40.7696 32.8691 40.7696 31.4755V19.0542Z" fill="url(#paint0_linear_466_2284)"/>
<path d="M40.7696 9.42013C40.7696 6.87527 38.7038 4.81516 36.1519 4.81516H35.5443C35.2405 4.81516 35.0582 5.05752 35.0582 5.29989V12.6921C35.0582 13.3586 34.5114 13.9039 33.843 13.9039H27.5848C26.6127 13.9039 25.8228 14.4492 25.3975 15.2975C25.2152 15.7217 24.7899 15.964 24.3038 15.964H17.0127C16.3443 15.964 15.7975 16.5094 15.7975 17.1759V21.2355C15.7975 21.7202 16.0405 22.1444 16.5266 22.3262L29.7722 28.9913C30.9873 29.5972 31.7772 30.8696 31.7772 32.2632V36.0199C31.7772 37.4135 30.9873 38.6253 29.7722 39.2918L38.7646 34.7475C39.9798 34.1415 40.7696 32.8691 40.7696 31.4755V9.42013Z" fill="url(#paint1_linear_466_2284)"/>
<path d="M26.1873 39.716L25.762 39.2313C25.3975 38.8071 24.9114 38.4436 24.4253 38.1406L17.5595 34.6869C16.5266 34.1416 15.8582 33.0509 15.8582 31.8997V30.7484C15.8582 28.9307 14.8253 27.2341 13.1848 26.4464L6.50127 23.1139C5.46836 22.5685 4.8 21.5385 4.8 20.3872V31.5361C4.8 32.9297 5.58988 34.1416 6.80507 34.8081L22.9063 42.8668C23.5747 43.2303 24.4253 43.2303 25.0937 42.8668L25.5797 42.6244C26.1873 42.3214 26.6127 41.7155 26.6127 40.9884C26.6127 40.5037 26.4911 40.0795 26.1873 39.716Z" fill="url(#paint2_linear_466_2284)"/>
<path d="M6.80507 15.7823L9.23545 14.5704V8.20829C9.23545 7.48119 9.72152 6.81468 10.3899 6.51172C10.6329 6.45113 10.7544 6.20876 10.7544 5.9664V5.42107C10.7544 5.05752 10.5114 4.81516 10.1468 4.81516H9.23545C8.08102 4.81516 7.0481 5.2393 6.25823 6.08758L6.01519 6.32995C5.28608 7.11764 4.8 8.1477 4.8 9.29894V19.0542C4.8 17.6606 5.58988 16.3882 6.80507 15.7823Z" fill="url(#paint3_linear_466_2284)"/>
<defs>
<linearGradient id="paint0_linear_466_2284" x1="-18.144" y1="-10.3555" x2="35.1133" y2="29.4457" gradientUnits="userSpaceOnUse">
<stop stop-color="white"/>
<stop offset="0.540273" stop-color="#ECECEC"/>
<stop offset="1" stop-color="#DBDBDB"/>
</linearGradient>
<linearGradient id="paint1_linear_466_2284" x1="26.8099" y1="14.496" x2="38.343" y2="34.9435" gradientUnits="userSpaceOnUse">
<stop stop-color="#FF14B1"/>
<stop offset="1" stop-color="#009DFF"/>
</linearGradient>
<linearGradient id="paint2_linear_466_2284" x1="13.4513" y1="26.7759" x2="24.5013" y2="41.5774" gradientUnits="userSpaceOnUse">
<stop stop-color="#FF14B1"/>
<stop offset="1" stop-color="#009DFF"/>
</linearGradient>
<linearGradient id="paint3_linear_466_2284" x1="7.6601" y1="8.81338" x2="10.5207" y2="17.5981" gradientUnits="userSpaceOnUse">
<stop stop-color="#FF14B1"/>
<stop offset="1" stop-color="#009DFF"/>
</linearGradient>
</defs>
</svg>
