<svg width="245" height="78" viewBox="0 0 245 78" fill="none" xmlns="http://www.w3.org/2000/svg">
    <path
        d="M88.4748 26.0075H97.1177C105.853 26.0075 110.634 31.843 110.634 39.1374C110.634 46.3406 105.853 52.2673 97.1177 52.2673H88.3828V26.0075H88.4748ZM96.8419 47.1612C101.807 47.1612 104.565 43.6964 104.565 39.2286C104.565 34.7608 101.899 31.2959 96.8419 31.2959H94.2674V47.2524H96.8419V47.1612Z"
        fill="#25282B" />
    <path
        d="M113.943 39.1374C113.943 31.6607 120.012 25.6428 127.551 25.6428C135.091 25.6428 141.159 31.6607 141.159 39.1374C141.159 46.6142 135.091 52.6321 127.551 52.6321C120.012 52.6321 113.943 46.6142 113.943 39.1374ZM135.367 39.1374C135.367 34.7608 131.965 31.3872 127.551 31.3872C123.138 31.3872 119.736 34.7608 119.736 39.1374C119.736 43.5141 123.138 46.8877 127.551 46.8877C131.965 46.8877 135.367 43.6053 135.367 39.1374Z"
        fill="#25282B" />
    <path
        d="M159.365 52.2673L153.756 43.514L148.148 52.2673H141.436L150.538 38.7727L141.895 26.0075H148.607L153.664 33.9402L158.813 26.0075H165.525L156.882 38.7727L166.077 52.2673H159.365Z"
        fill="#25282B" />
    <path
        d="M189.615 45.0641C189.615 49.7143 186.121 52.2673 181.799 52.2673H169.57V26.0075H180.42C184.833 26.0075 188.419 28.6517 188.419 33.3019C188.419 36.0373 187.224 37.7697 185.385 38.8639C187.868 39.8668 189.615 41.7816 189.615 45.0641ZM179.684 31.2048H175.363V36.7667H179.684C181.247 36.7667 182.535 35.4902 182.535 33.9402C182.535 32.3901 181.247 31.2048 179.684 31.2048ZM183.73 44.3347C183.73 42.7846 182.443 41.5081 180.88 41.5081H175.363V47.0701H180.88C182.535 47.1612 183.73 45.8847 183.73 44.3347Z"
        fill="#25282B" />
    <path
        d="M192.098 39.1374C192.098 31.6607 198.166 25.6428 205.706 25.6428C213.245 25.6428 219.314 31.6607 219.314 39.1374C219.314 46.6142 213.245 52.6321 205.706 52.6321C198.166 52.6321 192.098 46.6142 192.098 39.1374ZM213.521 39.1374C213.521 34.7608 210.119 31.3872 205.706 31.3872C201.292 31.3872 197.89 34.7608 197.89 39.1374C197.89 43.5141 201.292 46.8877 205.706 46.8877C210.119 46.8877 213.521 43.6053 213.521 39.1374Z"
        fill="#25282B" />
    <path
        d="M237.519 52.2673L231.911 43.514L226.302 52.2673H219.59L228.693 38.7727L220.05 26.0075H226.762L231.819 33.9402L236.968 26.0075H243.68L235.037 38.7727L244.231 52.2673H237.519Z"
        fill="#25282B" />
    <path
        d="M69.1269 60.9202C71.6001 59.687 73.2077 57.0972 73.2077 54.2609V28.9802C73.2077 26.1439 71.6001 23.6775 69.1269 22.3209L41.0557 8.26245C38.2114 6.90593 34.9962 6.90593 32.152 8.26245L4.08083 22.3209C1.6076 23.5541 0 26.1439 0 28.9802V54.3842C0 57.2206 1.6076 59.687 4.08083 61.0435L32.152 74.9787C34.9962 76.3352 38.2114 76.3352 41.0557 74.9787L69.1269 60.9202Z"
        fill="#FEFEFE" />
    <path
        d="M73.2075 28.9802C73.2075 26.1439 71.5999 23.6775 69.1267 22.3209L41.0555 8.26245C38.2113 6.90593 34.9961 6.90593 32.1518 8.26245L5.06993 21.8277C3.33867 22.8142 3.33867 25.2806 5.06993 26.2672L35.2434 41.4356C36.109 41.8055 36.6037 42.6688 36.6037 43.6553V76.0885C38.0876 76.0885 39.6952 75.7186 41.0555 74.9787L69.1267 60.9202C71.5999 59.687 73.2075 57.0972 73.2075 54.2609V28.9802Z"
        fill="url(#paint0_linear_871_2849)" />
    <path
        d="M73.2097 9.37233C73.2097 4.19289 69.0052 0 63.8114 0H62.5748C61.9565 0 61.5855 0.493281 61.5855 0.986561V16.0316C61.5855 17.3881 60.4726 18.498 59.1123 18.498H46.3751C44.3965 18.498 42.7889 19.6079 41.9233 21.3344C41.5523 22.1976 40.6867 22.6909 39.6974 22.6909H24.858C23.4977 22.6909 22.3848 23.8008 22.3848 25.1573V33.4198C22.3848 34.4063 22.8794 35.2696 23.8687 35.6395L50.827 49.2048C53.3002 50.438 54.9078 53.0277 54.9078 55.864V63.5099C54.9078 66.3463 53.3002 68.8127 50.827 70.1692L69.1289 60.9202C71.6021 59.687 73.2097 57.0972 73.2097 54.2609V9.37233Z"
        fill="url(#paint1_linear_871_2849)" />
    <path
        d="M43.5289 71.0324L42.6633 70.0459C41.9213 69.1826 40.932 68.4427 39.9427 67.8261L25.9689 60.7969C23.8667 59.687 22.5064 57.4672 22.5064 55.1241V52.781C22.5064 49.0814 20.4042 45.6285 17.0653 44.0253L3.46253 37.2427C1.36028 36.1328 0 34.0364 0 31.6933V54.3842C0 57.2206 1.6076 59.687 4.08083 61.0435L36.8512 77.4451C38.2115 78.185 39.9427 78.185 41.303 77.4451L42.2923 76.9518C43.5289 76.3352 44.3945 75.102 44.3945 73.6222C44.3945 72.6356 44.1472 71.7724 43.5289 71.0324Z"
        fill="url(#paint2_linear_871_2849)" />
    <path
        d="M4.08083 22.321L9.0273 19.8545V6.90593C9.0273 5.42609 10.0166 4.06957 11.3769 3.45296C11.8715 3.32964 12.1188 2.83636 12.1188 2.34308V1.2332C12.1188 0.493281 11.6242 0 10.8822 0H9.0273C6.67773 0 4.57548 0.863241 2.96788 2.58972L2.47323 3.083C0.989293 4.68617 0 6.78261 0 9.12569V28.9802C0 26.1439 1.6076 23.5542 4.08083 22.321Z"
        fill="url(#paint3_linear_871_2849)" />
    <defs>
        <linearGradient id="paint0_linear_871_2849" x1="-46.6973" y1="-30.8763" x2="61.6955"
            y2="50.1297" gradientUnits="userSpaceOnUse">
            <stop stop-color="white" />
            <stop offset="0.540273" stop-color="#ECECEC" />
            <stop offset="1" stop-color="#DBDBDB" />
        </linearGradient>
        <linearGradient id="paint1_linear_871_2849" x1="44.798" y1="19.703" x2="68.2708"
            y2="61.3192" gradientUnits="userSpaceOnUse">
            <stop stop-color="#FF14B1" />
            <stop offset="1" stop-color="#009DFF" />
        </linearGradient>
        <linearGradient id="paint2_linear_871_2849" x1="17.6077" y1="44.6959" x2="40.0974"
            y2="74.8209" gradientUnits="userSpaceOnUse">
            <stop stop-color="#FF14B1" />
            <stop offset="1" stop-color="#009DFF" />
        </linearGradient>
        <linearGradient id="paint3_linear_871_2849" x1="5.82105" y1="8.13745" x2="11.6432"
            y2="26.0167" gradientUnits="userSpaceOnUse">
            <stop stop-color="#FF14B1" />
            <stop offset="1" stop-color="#009DFF" />
        </linearGradient>
    </defs>
</svg>
    