<?xml version="1.0" encoding="UTF-8"?>
<!DOCTYPE svg PUBLIC "-//W3C//DTD SVG 1.1//EN" "http://www.w3.org/Graphics/SVG/1.1/DTD/svg11.dtd">
<!-- Creator: CorelDRAW 2020 (64-Bit) -->
<svg xmlns="http://www.w3.org/2000/svg" xml:space="preserve" width="1.38888in" height="1.38888in" version="1.1" style="shape-rendering:geometricPrecision; text-rendering:geometricPrecision; image-rendering:optimizeQuality; fill-rule:evenodd; clip-rule:evenodd"
viewBox="0 0 1388.88 1388.88"
 xmlns:xlink="http://www.w3.org/1999/xlink"
 xmlns:xodm="http://www.corel.com/coreldraw/odm/2003">
 <defs>
  <style type="text/css">
   <![CDATA[
    .fil4 {fill:#633990}
    .fil5 {fill:#89418C}
    .fil6 {fill:#B04988}
    .fil7 {fill:#D65184}
    .fil3 {fill:#E35F62}
    .fil2 {fill:#EF6C40}
    .fil1 {fill:#FC7A1E}
    .fil0 {fill:white}
   ]]>
  </style>
 </defs>
 <g id="Layer_x0020_1">
  <metadata id="CorelCorpID_0Corel-Layer"/>
  <g id="_2171461051248">
   <circle class="fil0" cx="694.44" cy="694.44" r="687.5"/>
   <g>
    <path class="fil1" d="M496.69 579.67c45.65,0 82.65,-37 82.65,-82.65 0,-45.65 -37,-82.65 -82.65,-82.65 -77.37,0 -147.43,31.37 -198.15,82.08 -36.86,36.86 -63.5,83.94 -75.3,136.61 8.46,-36.65 41.3,-63.98 80.53,-63.98 12.29,0 23.96,2.69 34.44,7.5 28.45,13.06 48.2,41.8 48.2,75.15 0,6.06 -0.65,11.96 -1.89,17.65 4.84,-21.62 15.76,-40.94 30.88,-56.06 20.8,-20.8 49.53,-33.66 81.28,-33.66z"/>
    <path class="fil2" d="M415.41 775.89c-20.8,-20.8 -33.66,-49.53 -33.66,-81.28 0,-8.44 0.91,-16.68 2.64,-24.61 0,-0.02 0.01,-0.03 0.01,-0.04 0.04,-0.19 0.08,-0.38 0.13,-0.57 0,-0.01 0,-0.03 0.01,-0.04 1.23,-5.67 1.88,-11.57 1.88,-17.61 0,-33.35 -19.76,-62.09 -48.2,-75.15 -10.48,-4.81 -22.15,-7.5 -34.44,-7.5 -39.2,0 -72.02,27.29 -80.51,63.91 -0,0.02 -0.01,0.05 -0.02,0.07 -0.11,0.49 -0.22,0.97 -0.32,1.46 -4.23,19.35 -6.46,39.45 -6.46,60.07 0,77.37 31.37,147.43 82.08,198.15 21.89,21.89 47.38,40.17 75.51,53.89 -27.1,-13.56 -45.7,-41.59 -45.7,-73.95 0,-19.09 6.47,-36.66 17.33,-50.65 15.12,-19.46 38.75,-31.99 65.31,-31.99 12.58,0 24.5,2.81 35.17,7.83 -11.45,-5.61 -21.83,-13.07 -30.76,-21.99z"/>
    <path class="fil3" d="M561.62 782.21c-16.86,16.86 -38.41,27.33 -64.93,27.33 -17.62,0 -34.31,-3.96 -49.23,-11.04 -0.43,-0.2 -0.87,-0.41 -1.3,-0.62 -10.67,-5.02 -22.59,-7.83 -35.17,-7.83 -26.56,0 -50.19,12.53 -65.31,31.99 -10.87,13.99 -17.33,31.57 -17.33,50.65 0,32.38 18.62,60.41 45.74,73.97 0.7,0.34 1.41,0.68 2.11,1.02 0.02,0.01 0.03,0.02 0.05,0.02 36.48,17.4 77.32,27.13 120.43,27.13 74.78,0 135.07,-29.04 181.8,-75.76 11.44,-11.44 21.96,-23.94 31.56,-37.29 -15.11,19.56 -38.81,32.16 -65.44,32.16 -23.52,0 -44.74,-9.82 -59.79,-25.58 -14.16,-14.84 -22.86,-34.93 -22.86,-57.06 0,-16.7 4.96,-32.25 13.48,-45.25 -4.31,5.85 -8.92,11.26 -13.82,16.16z"/>
    <path class="fil4" d="M892.19 809.21c-45.65,0 -82.65,37 -82.65,82.65 0,45.64 37,82.65 82.65,82.65 77.37,0 147.43,-31.37 198.15,-82.09 36.86,-36.86 63.5,-83.93 75.31,-136.61 -8.46,36.65 -41.31,63.98 -80.53,63.98 -12.29,0 -23.96,-2.68 -34.44,-7.5 -28.45,-13.06 -48.2,-41.8 -48.2,-75.15 0,-6.06 0.65,-11.96 1.89,-17.65 -4.84,21.62 -15.77,40.94 -30.89,56.06 -20.8,20.8 -49.53,33.66 -81.28,33.66z"/>
    <path class="fil5" d="M973.46 613c20.8,20.79 33.66,49.53 33.66,81.28 0,8.45 -0.91,16.68 -2.64,24.61 -0,0.02 -0.01,0.03 -0.01,0.04 -0.04,0.19 -0.09,0.38 -0.13,0.57 -0,0.01 -0.01,0.03 -0.01,0.04 -1.23,5.67 -1.88,11.56 -1.88,17.61 0,33.35 19.76,62.09 48.2,75.15 10.48,4.81 22.15,7.5 34.44,7.5 39.2,0 72.03,-27.29 80.51,-63.91 0.01,-0.02 0.01,-0.05 0.02,-0.07 0.11,-0.49 0.22,-0.97 0.32,-1.46 4.23,-19.35 6.46,-39.46 6.46,-60.08 0,-77.37 -31.37,-147.43 -82.08,-198.14 -21.89,-21.89 -47.38,-40.18 -75.51,-53.89 27.1,13.56 45.7,41.58 45.7,73.95 0,19.09 -6.47,36.66 -17.33,50.65 -15.12,19.47 -38.75,31.99 -65.31,31.99 -12.57,0 -24.5,-2.81 -35.17,-7.83 11.45,5.61 21.83,13.07 30.76,22z"/>
    <path class="fil6" d="M892.19 579.34c17.62,0 34.31,3.96 49.23,11.04 0.43,0.2 0.86,0.41 1.29,0.62 10.67,5.03 22.59,7.83 35.17,7.83 26.56,0 50.19,-12.52 65.31,-31.99 10.87,-13.99 17.33,-31.57 17.33,-50.65 0,-32.37 -18.6,-60.39 -45.7,-73.95 -0.72,-0.35 -1.44,-0.7 -2.17,-1.05 -36.49,-17.4 -77.34,-27.15 -120.46,-27.15 -74.79,0 -135,28.95 -181.65,75.61 -11.25,11.25 -21.6,23.52 -31.06,36.63 15.14,-19.09 38.54,-31.35 64.8,-31.35 23.5,0 44.72,9.81 59.76,25.56 14.18,14.83 22.88,34.94 22.88,57.08 0,17 -5.13,32.8 -13.93,45.94 4.48,-6.18 9.29,-11.87 14.41,-17 16.78,-16.78 38.27,-27.19 64.79,-27.19z"/>
    <path class="fil7" d="M575.44 766.05c-8.52,13 -13.48,28.55 -13.48,45.25 0,22.13 8.7,42.22 22.86,57.06 15.05,15.76 36.27,25.58 59.79,25.58 26.63,0 50.33,-12.6 65.44,-32.16 1.48,-2.06 2.94,-4.14 4.38,-6.24 28.51,-41.64 48.51,-91 60.56,-142.54 7.6,-32.52 19.41,-62.56 35.62,-86.12 0.78,-1.14 1.57,-2.26 2.37,-3.36 8.8,-13.14 13.93,-28.94 13.93,-45.94 0,-22.14 -8.7,-42.25 -22.88,-57.08 -15.05,-15.75 -36.26,-25.56 -59.76,-25.56 -26.26,0 -49.66,12.25 -64.8,31.35 -1.94,2.68 -3.83,5.4 -5.7,8.15 -27.98,41.3 -47.63,90.11 -59.56,141.12 -7.53,32.21 -19.24,62.05 -35.29,85.57 -1.14,1.68 -2.31,3.32 -3.49,4.93z"/>
   </g>
  </g>
 </g>
</svg>
