<?xml version="1.0" encoding="UTF-8"?>
<!DOCTYPE svg PUBLIC "-//W3C//DTD SVG 1.1//EN" "http://www.w3.org/Graphics/SVG/1.1/DTD/svg11.dtd">
<!-- Creator: CorelDRAW 2020 (64-Bit) -->
<svg xmlns="http://www.w3.org/2000/svg" xml:space="preserve" width="8.41666in" height="1.18055in" version="1.1" style="shape-rendering:geometricPrecision; text-rendering:geometricPrecision; image-rendering:optimizeQuality; fill-rule:evenodd; clip-rule:evenodd"
viewBox="0 0 8416.66 1180.55"
 xmlns:xlink="http://www.w3.org/1999/xlink"
 xmlns:xodm="http://www.corel.com/coreldraw/odm/2003">
 <defs>
  <style type="text/css">
   <![CDATA[
    .str3 {stroke:#633990;stroke-width:6.94;stroke-miterlimit:2.61313}
    .str4 {stroke:#89418C;stroke-width:6.94;stroke-miterlimit:2.61313}
    .str5 {stroke:#B04988;stroke-width:6.94;stroke-miterlimit:2.61313}
    .str6 {stroke:#D65184;stroke-width:6.94;stroke-miterlimit:2.61313}
    .str2 {stroke:#E35F62;stroke-width:6.94;stroke-miterlimit:2.61313}
    .str1 {stroke:#EF6C40;stroke-width:6.94;stroke-miterlimit:2.61313}
    .str0 {stroke:#FC7A1E;stroke-width:6.94;stroke-miterlimit:2.61313}
    .fil7 {fill:black}
    .fil3 {fill:#633990}
    .fil4 {fill:#89418C}
    .fil5 {fill:#B04988}
    .fil6 {fill:#D65184}
    .fil2 {fill:#E35F62}
    .fil1 {fill:#EF6C40}
    .fil0 {fill:#FC7A1E}
   ]]>
  </style>
 </defs>
 <g id="Layer_x0020_1">
  <metadata id="CorelCorpID_0Corel-Layer"/>
  <g id="_2420909239168">
   <path class="fil0 str0" d="M475.6 382.61c70.68,0 127.98,-57.3 127.98,-127.98 0,-70.68 -57.3,-127.98 -127.98,-127.98 -119.81,0 -228.3,48.57 -306.83,127.11 -57.08,57.08 -98.33,129.98 -116.61,211.55 13.1,-56.76 63.96,-99.07 124.7,-99.07 19.03,0 37.09,4.15 53.33,11.61 44.05,20.22 74.65,64.72 74.65,116.37 0,9.38 -1.01,18.52 -2.92,27.32 7.49,-33.48 24.41,-63.39 47.82,-86.81 32.2,-32.2 76.7,-52.12 125.86,-52.12z"/>
   <path class="fil1 str1" d="M349.74 686.45c-32.2,-32.2 -52.12,-76.7 -52.12,-125.86 0,-13.08 1.41,-25.83 4.08,-38.1 0,-0.02 0.01,-0.05 0.02,-0.07 0.06,-0.3 0.13,-0.59 0.2,-0.89 0,-0.02 0,-0.04 0.01,-0.06 1.9,-8.79 2.91,-17.91 2.91,-27.27 0,-51.65 -30.59,-96.15 -74.65,-116.37 -16.24,-7.45 -34.3,-11.61 -53.33,-11.61 -60.7,0 -111.53,42.26 -124.68,98.96 -0.01,0.04 -0.02,0.07 -0.02,0.11 -0.17,0.75 -0.33,1.5 -0.5,2.26 -6.55,29.97 -10,61.09 -10,93.03 0,119.81 48.57,228.3 127.11,306.83 33.89,33.9 73.37,62.21 116.93,83.45 -41.96,-21 -70.78,-64.39 -70.78,-114.51 0,-29.56 10.02,-56.77 26.85,-78.44 23.41,-30.15 60,-49.54 101.13,-49.54 19.48,0 37.94,4.35 54.46,12.13 -17.74,-8.69 -33.81,-20.24 -47.63,-34.06z"/>
   <path class="fil2 str2" d="M576.14 696.24c-26.1,26.1 -59.48,42.33 -100.54,42.33 -27.28,0 -53.13,-6.13 -76.24,-17.1 -0.67,-0.32 -1.33,-0.64 -2,-0.96 -16.52,-7.78 -34.98,-12.13 -54.46,-12.13 -41.13,0 -77.72,19.4 -101.13,49.54 -16.83,21.67 -26.85,48.88 -26.85,78.44 0,50.14 28.84,93.55 70.83,114.54 1.09,0.53 2.19,1.06 3.28,1.58 0.03,0.02 0.06,0.02 0.08,0.04 56.5,26.94 119.74,42.02 186.49,42.02 115.8,0 209.15,-44.96 281.51,-117.31 17.72,-17.72 34.01,-37.07 48.87,-57.75 -23.41,30.29 -60.09,49.8 -101.33,49.8 -36.41,0 -69.28,-15.21 -92.58,-39.62 -21.93,-22.97 -35.4,-54.09 -35.4,-88.36 0,-25.86 7.67,-49.94 20.87,-70.07 -6.68,9.06 -13.81,17.44 -21.4,25.02z"/>
   <path class="fil3 str3" d="M1088.02 738.06c-70.68,0 -127.98,57.3 -127.98,127.98 0,70.68 57.3,127.98 127.98,127.98 119.81,0 228.3,-48.57 306.83,-127.11 57.07,-57.07 98.33,-129.97 116.61,-211.54 -13.11,56.76 -63.96,99.07 -124.7,99.07 -19.03,0 -37.09,-4.16 -53.33,-11.61 -44.06,-20.22 -74.65,-64.72 -74.65,-116.37 0,-9.38 1.01,-18.52 2.93,-27.32 -7.49,33.48 -24.41,63.4 -47.82,86.81 -32.2,32.2 -76.7,52.12 -125.86,52.12z"/>
   <path class="fil4 str4" d="M1213.89 434.22c32.2,32.2 52.12,76.7 52.12,125.86 0,13.07 -1.41,25.83 -4.08,38.1 -0.01,0.02 -0.01,0.04 -0.02,0.07 -0.07,0.3 -0.13,0.59 -0.2,0.88 -0,0.02 -0.01,0.04 -0.01,0.06 -1.91,8.78 -2.91,17.91 -2.91,27.26 0,51.65 30.59,96.15 74.65,116.37 16.24,7.45 34.3,11.61 53.33,11.61 60.7,0 111.53,-42.26 124.67,-98.96 0.01,-0.04 0.02,-0.07 0.02,-0.11 0.17,-0.75 0.34,-1.5 0.5,-2.26 6.55,-29.97 10,-61.1 10,-93.03 0,-119.82 -48.57,-228.3 -127.11,-306.83 -33.9,-33.9 -73.37,-62.21 -116.93,-83.45 41.96,21 70.78,64.39 70.78,114.52 0,29.56 -10.02,56.77 -26.85,78.44 -23.41,30.14 -60.01,49.54 -101.13,49.54 -19.48,0 -37.94,-4.35 -54.46,-12.13 17.74,8.69 33.81,20.24 47.63,34.06z"/>
   <path class="fil5 str5" d="M1088.02 382.1c27.28,0 53.13,6.13 76.24,17.09 0.67,0.32 1.33,0.64 2,0.96 16.52,7.78 34.98,12.13 54.46,12.13 41.13,0 77.72,-19.4 101.13,-49.54 16.83,-21.67 26.85,-48.88 26.85,-78.44 0,-50.12 -28.81,-93.52 -70.78,-114.52 -1.12,-0.55 -2.24,-1.09 -3.37,-1.62 -56.51,-26.95 -119.76,-42.04 -186.54,-42.04 -115.81,0 -209.04,44.83 -281.29,117.08 -17.43,17.43 -33.45,36.43 -48.1,56.72 23.44,-29.57 59.68,-48.54 100.34,-48.54 36.4,0 69.24,15.19 92.55,39.58 21.95,22.98 35.43,54.11 35.43,88.4 0,26.32 -7.95,50.79 -21.57,71.13 6.94,-9.57 14.38,-18.38 22.32,-26.32 25.98,-25.97 59.26,-42.09 100.32,-42.09z"/>
   <path class="fil6 str6" d="M597.54 671.22c-13.19,20.13 -20.87,44.2 -20.87,70.07 0,34.27 13.47,65.39 35.4,88.36 23.3,24.41 56.17,39.62 92.58,39.62 41.24,0 77.93,-19.51 101.33,-49.8 2.29,-3.19 4.56,-6.41 6.78,-9.66 44.15,-64.48 75.12,-140.92 93.78,-220.73 11.78,-50.36 30.06,-96.88 55.16,-133.35 1.21,-1.76 2.44,-3.5 3.68,-5.21 13.62,-20.34 21.57,-44.81 21.57,-71.13 0,-34.29 -13.48,-65.42 -35.43,-88.4 -23.3,-24.39 -56.15,-39.58 -92.55,-39.58 -40.67,0 -76.9,18.97 -100.34,48.54 -3,4.15 -5.94,8.36 -8.82,12.62 -43.32,63.95 -73.75,139.54 -92.22,218.53 -11.66,49.88 -29.79,96.07 -54.64,132.5 -1.77,2.59 -3.57,5.14 -5.41,7.63z"/>
   <path class="fil7" d="M3878.28 638.78l509.46 0 1.26 -27.71c0,-65.49 -13.85,-123.63 -41.57,-174.44 -27.71,-50.8 -65.91,-90.47 -114.61,-119.02 -48.7,-28.55 -103.7,-42.82 -164.99,-42.82 -61.3,0 -116.5,14.28 -165.62,42.82 -49.12,28.55 -87.74,68.43 -115.87,119.65 -28.13,51.21 -42.19,109.15 -42.19,173.8 0,64.65 14.69,122.59 44.09,173.81 29.39,51.22 70.32,91.31 122.8,120.28 52.48,28.97 112.72,43.45 180.74,43.45 52.9,0 101.39,-9.24 145.47,-27.71 44.08,-18.47 80.82,-45.34 110.2,-80.61l-50.38 -57.93c-25.19,28.55 -55,50.17 -89.43,64.86 -34.43,14.69 -72.21,22.04 -113.35,22.04 -73.05,0 -133.5,-21.2 -181.37,-63.6 -18.41,-16.31 -33.65,-34.57 -45.72,-54.8 -19.32,-32.35 -30.52,-69.72 -33.63,-112.09 -1.54,-24.31 -1.83,-46.3 0,-66.75 4.41,-49.09 19.31,-91.22 44.71,-126.4 8.49,-11.75 18.14,-22.73 28.97,-32.93 43.24,-40.72 96.77,-61.08 160.58,-61.08 64.65,0 118.6,20.36 161.84,61.08 43.24,40.73 67.8,93.83 73.68,159.33l-425.08 0 0 66.75zm-1139.76 -631l0 934.53 89.42 0 0 -309.08 0 -38.54 0 -199 0 -101.68 0 -286.24 -89.42 0zm151.76 411.22c41.56,-42.41 98.03,-63.61 169.4,-63.61 63.81,0 112.93,18.05 147.35,54.16 34.43,36.1 51.64,88.58 51.64,157.44l0 375.32 89.43 0 0 -384.14c0,-92.36 -24.56,-162.69 -73.69,-210.96 -49.12,-48.28 -115.24,-72.42 -198.37,-72.42 -55.42,0 -104.54,10.49 -147.36,31.49 -20.88,10.23 -39.56,22.56 -56.05,36.99l0 96.35c5.39,-7.25 11.27,-14.13 17.63,-20.62zm-865.2 -63.61l0 400.52c0,61.29 16.8,108.74 50.38,142.32 33.59,33.58 81.45,50.38 143.58,50.38 26.87,0 52.69,-3.99 77.46,-11.96 24.77,-7.98 45.55,-19.52 62.34,-34.64l-31.49 -64.24c-12.59,10.92 -27.5,19.31 -44.71,25.19 -17.21,5.88 -35.06,8.81 -53.53,8.81 -36.94,0 -65.28,-10.29 -85.02,-30.85 -19.73,-20.57 -29.6,-50.59 -29.6,-90.06l0 -395.48 201.52 0 0 -75.57 -201.52 0 0 -144.84 -89.42 0 0 144.84 -118.39 0 0 75.57 118.39 0zm3596.81 -347.61l0 934.53 89.42 0 0 -342.74 0 -4.87 0 -199 0 -135.34 0 -252.58 -89.42 0zm151.76 411.22c41.56,-42.41 98.03,-63.61 169.4,-63.61 63.81,0 112.93,18.05 147.35,54.16 34.43,36.1 51.64,88.58 51.64,157.44l0 375.32 89.43 0 0 -384.14c0,-92.36 -24.56,-162.69 -73.69,-210.96 -49.12,-48.28 -115.24,-72.42 -198.37,-72.42 -55.42,0 -104.54,10.49 -147.36,31.49 -20.88,10.23 -39.56,22.56 -56.05,36.99l0 96.35c5.39,-7.25 11.27,-14.13 17.63,-20.62zm1927.5 192.07l0 575.58 89.42 0 0 -236.37 0 -104.04c0.13,0.14 0.25,0.27 0.38,0.41l0.88 -235.58c0,-50.38 10.7,-95.3 32.12,-134.76 21.41,-39.46 50.8,-69.9 88.16,-91.31 37.36,-21.41 79.56,-32.12 126.58,-32.12 47.02,0 89.21,10.7 126.58,32.12 37.36,21.41 66.54,51.85 87.53,91.31 20.99,39.46 31.49,84.39 31.49,134.76 0,50.38 -10.5,95.3 -31.49,134.76 -20.99,39.46 -50.17,69.9 -87.53,91.31 -37.37,21.41 -79.56,32.11 -126.58,32.11 -47.02,0 -89.22,-10.7 -126.58,-32.11 -30.51,-17.48 -55.7,-40.98 -75.57,-70.5l0 119.67c9.43,6.73 19.29,13.01 29.6,18.84 51.22,28.97 108.74,43.45 172.55,43.45 63.81,0 121.33,-14.48 172.55,-43.45 51.22,-28.97 91.31,-69.06 120.28,-120.28 28.96,-51.22 43.45,-109.16 43.45,-173.81 0,-64.65 -14.49,-122.59 -43.45,-173.8 -28.97,-51.22 -69.06,-91.11 -120.28,-119.65 -51.22,-28.55 -108.74,-42.82 -172.55,-42.82 -63.81,0 -121.33,14.28 -172.55,42.82 -51.22,28.55 -91.52,68.43 -120.91,119.65 -29.39,51.21 -44.08,109.15 -44.08,173.8zm-2635.26 62.35c24.35,7.14 44.5,17.63 60.45,31.49 15.96,13.85 23.93,32.96 23.93,57.3 0,34.43 -14.48,61.09 -43.45,79.98 -28.97,18.89 -73.68,28.34 -134.13,28.34 -45.34,0 -89,-6.93 -130.99,-20.78 -41.98,-13.85 -76.83,-31.7 -104.53,-53.53l-40.31 70.53c27.71,23.51 66.12,43.03 115.24,58.57 49.12,15.53 100.55,23.3 154.29,23.3 85.65,0 152.6,-17 200.88,-51.01 48.28,-34.01 72.42,-79.98 72.42,-137.92 0,-42.82 -11.33,-76.41 -34.01,-100.76 -22.67,-24.35 -49.96,-41.57 -81.86,-51.64 -31.91,-10.08 -74.31,-20.15 -127.21,-30.23 -42.82,-7.55 -76.41,-14.9 -100.76,-22.04 -24.35,-7.13 -44.71,-18.26 -61.08,-33.37 -16.37,-15.11 -24.56,-35.26 -24.56,-60.46 0,-32.75 14.48,-59.2 43.45,-79.35 28.97,-20.15 72,-30.22 129.09,-30.22 75.57,0 140.64,18.89 195.22,56.67l39.04 -71.79c-27.71,-18.47 -62.98,-33.37 -105.8,-44.71 -42.82,-11.33 -85.64,-17 -128.46,-17 -82.28,0 -146.52,17.63 -192.7,52.9 -46.18,35.27 -69.27,80.61 -69.27,136.02 0,44.5 11.54,79.35 34.63,104.54 23.09,25.19 51.01,43.04 83.76,53.53 32.75,10.49 75.99,20.78 129.73,30.86 40.31,6.71 72.63,13.64 96.98,20.78zm1561.62 -62.35c0,64.65 14.69,122.59 44.09,173.81 29.39,51.22 69.69,91.31 120.91,120.28 51.22,28.97 108.73,43.45 172.55,43.45 63.81,0 121.33,-14.48 172.55,-43.45 51.22,-28.97 91.31,-69.06 120.28,-120.28 28.97,-51.22 43.46,-109.16 43.46,-173.81 0,-64.65 -14.49,-122.59 -43.46,-173.8 -28.96,-51.22 -69.06,-91.11 -120.28,-119.65 -51.22,-28.55 -108.74,-42.82 -172.55,-42.82 -63.81,0 -121.33,14.28 -172.55,42.82 -51.22,28.55 -91.52,68.43 -120.91,119.65 -29.39,51.21 -44.09,109.15 -44.09,173.8zm122.8 134.76c-21.41,-39.46 -32.12,-84.38 -32.12,-134.76 0,-50.38 10.7,-95.3 32.12,-134.76 21.41,-39.46 50.8,-69.9 88.16,-91.31 37.36,-21.41 79.56,-32.12 126.58,-32.12 47.02,0 89.21,10.7 126.58,32.12 37.36,21.41 66.54,51.85 87.53,91.31 20.99,39.46 31.49,84.39 31.49,134.76 0,50.38 -10.5,95.3 -31.49,134.76 -20.99,39.46 -50.17,69.9 -87.53,91.31 -37.37,21.41 -79.56,32.11 -126.58,32.11 -47.02,0 -89.22,-10.7 -126.58,-32.11 -37.37,-21.41 -66.75,-51.85 -88.16,-91.31z"/>
  </g>
 </g>
</svg>
