<?xml version="1.0" standalone="no"?>
<!DOCTYPE svg PUBLIC "-//W3C//DTD SVG 20010904//EN"
 "http://www.w3.org/TR/2001/REC-SVG-20010904/DTD/svg10.dtd">
<svg version="1.0" xmlns="http://www.w3.org/2000/svg"
 width="2000.000000pt" height="2000.000000pt" viewBox="0 0 2000.000000 2000.000000"
 preserveAspectRatio="xMidYMid meet">
<metadata>
Created by potrace 1.14, written by Peter Selinger 2001-2017
</metadata>
<g transform="translate(0.000000,2000.000000) scale(0.100000,-0.100000)"
fill="#000000" stroke="none">
<path d="M6950 14034 c-25 -2 -103 -9 -175 -15 -721 -61 -1450 -343 -2050
-792 -303 -226 -627 -557 -849 -866 -744 -1032 -958 -2351 -580 -3571 117
-375 323 -792 558 -1124 585 -832 1487 -1422 2481 -1625 448 -91 950 -106
1394 -41 542 79 1068 291 1527 613 899 631 1567 1711 1895 3062 97 400 181
648 313 920 302 623 683 960 1174 1041 130 22 396 14 534 -16 510 -108 932
-434 1157 -894 278 -567 206 -1239 -184 -1741 -71 -91 -211 -230 -300 -296
-291 -220 -652 -339 -1030 -339 -226 0 -482 -87 -675 -230 -519 -386 -641
-1097 -280 -1636 68 -101 213 -246 314 -314 238 -159 478 -220 811 -206 931
40 1763 360 2465 949 244 204 533 520 713 779 628 900 861 2020 646 3103 -324
1635 -1643 2917 -3282 3190 -240 39 -305 45 -584 52 -429 10 -779 -33 -1142
-138 -1260 -366 -2243 -1415 -2768 -2954 -72 -213 -129 -412 -198 -690 -150
-608 -353 -1048 -645 -1397 -231 -277 -505 -441 -825 -494 -136 -22 -398 -14
-540 16 -318 68 -603 220 -830 445 -253 250 -408 546 -471 900 -21 121 -24
391 -5 510 91 579 459 1054 996 1284 190 82 362 117 641 131 143 7 212 15 285
33 218 56 404 163 562 323 100 102 151 175 217 309 124 250 158 512 100 775
-102 470 -456 820 -935 925 -68 15 -341 27 -435 19z"/>
</g>
</svg>
