<svg width="24" height="24" viewBox="0 0 24 24" fill="none" xmlns="http://www.w3.org/2000/svg">
    <path d="M7.00142 7C7.00142 4.23858 9.24067 2 12.0029 2C14.7652 2 17.0044 4.23858 17.0044 7C17.0044 9.76142 14.7652 12 12.0029 12C9.24067 12 7.00142 9.76142 7.00142 7ZM21.8959 20.55L20.0054 16.76C19.1574 15.0683 17.4268 14.0001 15.534 14H8.47186C6.57907 14.0001 4.84848 15.0683 4.00051 16.76L2.10994 20.55C1.95392 20.8595 1.96935 21.2277 2.15071 21.5231C2.33208 21.8185 2.65351 21.999 3.00021 22H21.0057C21.3524 21.999 21.6738 21.8185 21.8551 21.5231C22.0365 21.2277 22.0519 20.8595 21.8959 20.55Z" fill="white"/>
</svg>    