<svg width="16" height="16" viewBox="0 0 16 16" fill="none" xmlns="http://www.w3.org/2000/svg">
<path d="M8.66667 3V2.33333C8.66509 2.24094 8.7012 2.15188 8.76667 2.08666C8.8398 2.02223 8.9363 1.99087 9.03333 2C11.6992 2.17777 13.8222 4.30075 14 6.96666C14.0055 7.05921 13.9743 7.15019 13.9133 7.22C13.8481 7.28547 13.7591 7.32157 13.6667 7.32H13C12.8258 7.32055 12.6806 7.18694 12.6667 7.01333C12.5148 5.04727 10.9527 3.48523 8.98667 3.33333C8.8078 3.32617 8.66652 3.17901 8.66667 3ZM8.78 4.76C8.70719 4.82395 8.66582 4.91643 8.66667 5.01333V5.68C8.66396 5.83936 8.77666 5.97741 8.93333 6.00666C9.46937 6.10479 9.89175 6.51925 10 7.05333C10.0293 7.21001 10.1673 7.3227 10.3267 7.32H10.9933C11.0902 7.32084 11.1827 7.27947 11.2467 7.20666C11.3094 7.13286 11.3384 7.03616 11.3267 6.94C11.1526 5.76656 10.2329 4.84421 9.06 4.66666C8.96189 4.6585 8.86494 4.69243 8.79333 4.76H8.78ZM11.78 14C12.1354 14.0003 12.4761 13.8587 12.7267 13.6067L13.8533 12.48C13.9636 12.3706 14.0168 12.2161 13.9972 12.062C13.9776 11.9079 13.8875 11.7717 13.7533 11.6933L11.18 10.1933C10.9181 10.0416 10.5868 10.0854 10.3733 10.3L9.11333 11.56C9.00984 11.6646 8.84998 11.689 8.72 11.62L8.28 11.38C6.72618 10.5448 5.45136 9.2723 4.61333 7.72L4.38 7.28C4.31098 7.15002 4.33536 6.99015 4.44 6.88666L5.7 5.62666C5.91455 5.41317 5.95835 5.08192 5.80667 4.82L4.30667 2.24666C4.22832 2.11253 4.09207 2.02243 3.93797 2.00284C3.78387 1.98325 3.62942 2.0364 3.52 2.14666L2.39333 3.27333C2.14131 3.52386 1.99972 3.86463 2 4.22V4.66666C2.00096 5.76916 2.27343 6.85445 2.79333 7.82666L2.96 8.12666C4.07446 10.1995 5.77383 11.8989 7.84667 13.0133L8.14667 13.18C9.12442 13.7134 10.2195 13.9952 11.3333 14H11.78Z" fill="white"/>
</svg>
